<?xml version="1.0" encoding="UTF-8"?>
<svg width="13px" height="22px" viewBox="0 0 13 22" version="1.1" xmlns="http://www.w3.org/2000/svg" xmlns:xlink="http://www.w3.org/1999/xlink">
    <title>下一步</title>
    <g id="页面-1" stroke="none" stroke-width="1" fill="none" fill-rule="evenodd">
        <g id="通用背景" transform="translate(-21.000000, -60.000000)" fill="#FFFFFF" fill-rule="nonzero">
            <g id="下一步" transform="translate(27.500000, 71.000000) scale(-1, 1) translate(-27.500000, -71.000000) translate(21.000000, 60.000000)">
                <path d="M0.880553136,21.1240851 L0.846673097,21.0902051 C0.26565328,20.5091853 0.26565328,19.5670342 0.846673097,18.9857931 L9.94258798,9.88987819 C10.5236078,9.30885837 11.4657589,9.30885837 12.047,9.88987819 L12.08088,9.92386823 C12.6618999,10.504888 12.6618999,11.4470391 12.08088,12.0280611 L2.98485773,21.1240834 C2.4037262,21.7052149 1.46168682,21.7052149 0.880555284,21.1240834 L0.880555284,21.1240834 L0.880553136,21.1240851 Z M0.846673097,0.861846706 L0.880553136,0.827856666 C1.46157295,0.24683685 2.40372405,0.24683685 2.98485558,0.827856666 L12.0808779,9.92377155 C12.6618977,10.5049031 12.6618977,11.4470542 12.0808779,12.028074 L12.0468878,12.062064 C11.465868,12.6430839 10.5237169,12.6430839 9.94269497,12.062064 L0.846780089,2.96593431 C0.265538983,2.38502406 0.265538983,1.44287297 0.846670089,0.861851003 L0.846670089,0.861851003 L0.846673097,0.861846706 Z" id="形状"></path>
            </g>
        </g>
    </g>
</svg>