<?xml version="1.0" encoding="UTF-8"?>
<svg width="16px" height="16px" viewBox="0 0 16 16" version="1.1" xmlns="http://www.w3.org/2000/svg" xmlns:xlink="http://www.w3.org/1999/xlink">
    <title>切片</title>
    <g id="页面-1" stroke="none" stroke-width="1" fill="none" fill-rule="evenodd">
        <g id="个人中心" transform="translate(-239.000000, -214.000000)" fill="#DEDEDE" fill-rule="nonzero">
            <g id="编-辑" transform="translate(239.000000, 214.000000)">
                <path d="M5.57467836,9.12133874 C5.90401156,9.40400626 6.41334653,9.40400626 6.74134691,9.12133874 L15.7586855,1.23465769 L15.7586855,1.23465768 C16.0410874,1.00419022 16.0831875,0.588427237 15.8527202,0.306023783 C15.8246211,0.271592806 15.7931164,0.240088081 15.7586854,0.211988986 L15.7546854,0.210655657 L15.7546854,0.210655665 C15.4171506,-0.0711009133 14.9262391,-0.0705399751 14.5893512,0.211988979 L5.5760126,8.09999816 L5.57601258,8.09999818 C5.29397943,8.3309172 5.25254189,8.74674581 5.48346012,9.02878051 C5.51116812,9.0626218 5.54217129,9.09362512 5.57601258,9.12133296 L5.57467836,9.12133874 Z M13.894688,7.50800874 L13.8920214,7.50800874 L13.8920214,7.50800874 C13.4678662,7.5072717 13.1234236,7.85052007 13.1226877,8.27467369 C13.1226862,8.27556335 13.1226862,8.27645301 13.1226877,8.27734266 L13.1226877,14.4560217 L1.54400235,14.4560217 L1.54400235,2.87468013 L7.72268142,2.87734679 C8.1493491,2.87601346 8.49201513,2.53067919 8.49068231,2.10401307 L8.49068231,2.1013464 L8.49068231,2.1013464 C8.49068231,1.67719122 8.1468366,1.33334071 7.72268142,1.33334071 C7.72268142,1.33334071 7.72268142,1.33334071 7.72268142,1.33334071 L0.766673325,1.33334071 L0.766673344,1.33334071 C0.345244728,1.33186876 0.00220995399,1.6719209 4.05653343e-06,2.09334639 L4.05653343e-06,15.2346898 L4.05653343e-06,15.2346885 C-0.000735800249,15.6555968 0.339100973,15.9978206 0.760004588,16.0000238 L13.901348,16.0000238 L13.901348,16.0000238 C14.323511,16.0000238 14.6659473,15.6581843 14.6666817,15.2360229 L14.6666817,8.2773429 L14.6666817,8.27734466 C14.6659469,7.8517176 14.3203125,7.50727345 13.8946855,7.50800939 C13.8946847,7.50800939 13.8946839,7.50800939 13.8946832,7.50800939 L13.894688,7.50800874 Z" id="形状"></path>
            </g>
        </g>
    </g>
</svg>