<?xml version="1.0" encoding="UTF-8"?>
<svg width="20px" height="20px" viewBox="0 0 20 20" version="1.1" xmlns="http://www.w3.org/2000/svg" xmlns:xlink="http://www.w3.org/1999/xlink">
    <title>邀请码</title>
    <g id="页面-1" stroke="none" stroke-width="1" fill="none" fill-rule="evenodd">
        <g id="登录页" transform="translate(-25.000000, -536.000000)" fill="#999999" fill-rule="nonzero">
            <g id="邀请码" transform="translate(25.000000, 536.000000)">
                <path d="M16.4710137,9.41303567 L14.1183562,9.41303567 C12.1698362,9.41303567 10.5893699,7.83256942 10.5893699,5.88404939 L10.5893699,3.53139186 C10.5893699,1.58287183 12.1698362,0.00240558029 14.1183562,0.00240558029 L16.4710137,0.00240558029 C18.4195338,0.00240558029 20,1.58287183 20,3.53139186 L20,5.88404939 C20,7.83256942 18.4195338,9.41303567 16.4710137,9.41303567 Z M18.2343041,3.52898628 C18.2343041,2.55472627 17.4452737,1.76329035 16.4686081,1.76329035 L14.1159506,1.76329035 C13.1416906,1.76329035 12.3502547,2.55232069 12.3502547,3.52898628 L12.3502547,5.88164381 C12.3502547,6.85590382 13.139285,7.64733974 14.1159506,7.64733974 L16.4686081,7.64733974 C17.4428682,7.64733974 18.2343041,6.8583094 18.2343041,5.88164381 L18.2343041,3.52898628 Z M5.88164928,20.0024001 L3.52899176,20.0024001 C1.58047173,20.0024001 5.47866683e-06,18.4219339 5.47866683e-06,16.4734138 L5.47866683e-06,14.1207563 C5.47866683e-06,12.1722363 1.58047173,10.59177 3.52899176,10.59177 L5.88164928,10.59177 C7.83016932,10.59177 9.41063557,12.1722363 9.41063557,14.1207563 L9.41063557,16.4734138 C9.41063557,18.4219339 7.83016932,20.0024001 5.88164928,20.0024001 Z M7.64493964,14.1183507 C7.64493964,13.1440907 6.8559093,12.3526548 5.8792437,12.3526548 L3.52658618,12.3526548 C2.55232617,12.3526548 1.76089025,13.1440907 1.76089025,14.1183507 L1.76089025,16.4710082 C1.76089025,17.4452683 2.54992058,18.2367042 3.52658618,18.2367042 L5.8792437,18.2367042 C6.85350372,18.2367042 7.64493964,17.4452683 7.64493964,16.4710082 L7.64493964,14.1183507 L7.64493964,14.1183507 Z M5.88164928,9.41303567 L3.52899176,9.41303567 C1.58047173,9.41303567 2.73621076e-06,7.83256942 2.73621076e-06,5.88404939 L2.73621076e-06,3.53139186 C-0.00240010162,1.58046625 1.57806615,0 3.52658618,0 L5.8792437,0 C7.82776374,0 9.40823273,1.58046625 9.40823273,3.52898628 L9.40823273,5.88164381 C9.41063557,7.83256942 7.83016932,9.41303567 5.88164928,9.41303567 Z M7.64493964,3.52898628 C7.64493964,2.55472627 6.8559093,1.76329035 5.8792437,1.76329035 L3.52658618,1.76329035 C2.55232617,1.76329035 1.76089025,2.55232069 1.76089025,3.52898628 L1.76089025,5.88164381 C1.76089025,6.85590382 2.54992058,7.64733974 3.52658618,7.64733974 L5.8792437,7.64733974 C6.85350372,7.64733974 7.64493964,6.8583094 7.64493964,5.88164381 L7.64493964,3.52898628 L7.64493964,3.52898628 Z M12.6461411,11.1787316 C13.1344739,11.1787316 13.528989,11.5732468 13.528989,12.0615796 L13.528989,13.2379083 C13.528989,13.7262411 13.1344739,14.1207563 12.6461411,14.1207563 C12.1578083,14.1207563 11.7632931,13.7262411 11.7632931,13.2379083 L11.7632931,12.0615796 C11.7632931,11.5732468 12.1578083,11.1787316 12.6461411,11.1787316 Z M12.6461411,14.7077179 C13.1344739,14.7077179 13.528989,15.1022331 13.528989,15.5905659 L13.528989,18.5325905 C13.528989,19.0209233 13.1344739,19.4154385 12.6461411,19.4154385 C12.1578083,19.4154385 11.7632931,19.0209233 11.7632931,18.5325905 L11.7632931,15.5905659 C11.7632931,15.1022331 12.1578083,14.7077179 12.6461411,14.7077179 Z M15.5881658,11.1787316 C16.0764985,11.1787316 16.4710137,11.5732468 16.4710137,12.0615796 L16.4710137,15.0036043 C16.4710137,15.4919371 16.0764985,15.8864522 15.5881658,15.8864522 C15.099833,15.8864522 14.7053178,15.4919371 14.7053178,15.0036043 L14.7053178,12.0615796 C14.7053178,11.5732468 15.099833,11.1787316 15.5881658,11.1787316 Z M15.5881658,17.0603754 C16.0764985,17.0603754 16.4710137,17.4548906 16.4710137,17.9432234 L16.4710137,18.5325905 C16.4710137,19.0209233 16.0764985,19.4154385 15.5881658,19.4154385 C15.099833,19.4154385 14.7053178,19.0209233 14.7053178,18.5325905 L14.7053178,17.9432234 C14.7053178,17.4572962 15.099833,17.0603754 15.5881658,17.0603754 Z M18.5301904,11.1787316 C19.0185232,11.1787316 19.4130384,11.5732468 19.4130384,12.0615796 L19.4130384,13.2379083 C19.4130384,13.7262411 19.0185232,14.1207563 18.5301904,14.1207563 C18.0418576,14.1207563 17.6473425,13.7262411 17.6473425,13.2379083 L17.6473425,12.0615796 C17.6473425,11.5732468 18.0418576,11.1787316 18.5301904,11.1787316 Z M18.5301904,14.7077179 C19.0185232,14.7077179 19.4130384,15.1022331 19.4130384,15.5905659 L19.4130384,18.5325905 C19.4130384,19.0209233 19.0185232,19.4154385 18.5301904,19.4154385 C18.0418576,19.4154385 17.6473425,19.0209233 17.6473425,18.5325905 L17.6473425,15.5905659 C17.6473425,15.1022331 18.0418576,14.7077179 18.5301904,14.7077179 Z" id="形状"></path>
            </g>
        </g>
    </g>
</svg>