<?xml version="1.0" encoding="UTF-8"?>
<svg width="21px" height="24px" viewBox="0 0 21 24" version="1.1" xmlns="http://www.w3.org/2000/svg" xmlns:xlink="http://www.w3.org/1999/xlink">
    <title>密码</title>
    <g id="页面-1" stroke="none" stroke-width="1" fill="none" fill-rule="evenodd">
        <g id="登录页" transform="translate(-24.000000, -345.000000)" fill="#999999" fill-rule="nonzero" stroke="#999999" stroke-width="0.5">
            <g id="密码" transform="translate(25.071433, 346.000000)">
                <path d="M10.2142853,16.5000192 C10.2142853,16.9190724 9.84763255,17.2857252 9.42857933,17.2857252 C9.00952611,17.2857252 8.64287334,16.9190724 8.64287334,16.5000192 L8.64287334,13.3571523 C8.64287334,12.9381205 9.00952611,12.5714463 9.42857933,12.5714463 C9.84763255,12.5714463 10.2142853,12.9381205 10.2142853,13.3571523 L10.2142853,16.5000192 Z M17.2857252,7.85714586 L1.57143347,7.85714586 C0.733327025,7.85714586 0,8.5381154 0,9.42857933 L0,18.8571801 L1.57143347,18.8571801 L1.57143347,10.2143283 C1.57143347,9.79527507 1.93808624,9.42860082 2.35713946,9.42860082 L16.5000192,9.42860082 C16.9190724,9.42860082 17.2857252,9.79527507 17.2857252,10.2143283 L17.2857252,18.8571801 L18.8571587,18.8571801 L18.8571587,9.42857933 C18.8571587,8.5381154 18.1238316,7.85714586 17.2857252,7.85714586 Z M17.2857252,17.7047784 L17.2857252,18.8571587 C17.2857252,19.6952651 16.6047771,20.4285921 15.7142917,20.4285921 L3.14288842,20.4285921 C2.30478198,20.4285921 1.57145495,19.7476441 1.57145495,18.8571587 L1.57145495,17.7047784 C0.628590575,18.2285896 2.14844e-05,17.7047784 2.14844e-05,18.8571587 C2.14844e-05,20.585729 1.41429657,22.0000256 3.14288842,22.0000256 L15.7142702,22.0000256 C17.4428621,22.0000256 18.8571372,20.585729 18.8571372,18.8571587 C18.8571372,17.6523994 18.1761891,18.2285896 17.2857037,17.7047784 L17.2857252,17.7047784 Z M9.42857933,0 C5.97143859,0 3.14286694,2.82857165 3.14286694,6.28571239 L3.14286694,9.42857933 L4.71427892,9.42857933 L4.71427892,6.28571239 C4.71427892,3.71905706 6.80952355,1.57143347 9.42857933,1.57143347 C11.9952561,1.57143347 14.1428797,3.66667809 14.1428797,6.28571239 L14.1428797,9.42857933 L15.7142917,9.42857933 L15.7142917,6.28571239 C15.7142917,2.82857165 12.8857201,0 9.42857933,0 Z" id="形状"></path>
            </g>
        </g>
    </g>
</svg>