<?xml version="1.0" encoding="UTF-8"?>
<svg width="22px" height="23px" viewBox="0 0 22 23" version="1.1" xmlns="http://www.w3.org/2000/svg" xmlns:xlink="http://www.w3.org/1999/xlink">
    <title>账户</title>
    <g id="页面-1" stroke="none" stroke-width="1" fill="none" fill-rule="evenodd">
        <g id="登录页" transform="translate(-27.000000, -280.000000)" fill-rule="nonzero">
            <g id="账户" transform="translate(28.000000, 280.146411)">
                <path d="M9.80540208,1.95220533 C12.4896904,1.95220533 14.6859154,4.14843029 14.6859154,6.83271866 C14.6859154,9.51700702 12.4896904,11.713232 9.80540208,11.713232 C7.12111372,11.713232 4.92488876,9.51700702 4.92488876,6.83271866 C4.92488876,4.14843029 7.12111372,1.95220533 9.80540208,1.95220533 L9.80540208,1.95220533 Z M9.80540208,0 C6.04739837,0 2.97267538,3.07472299 2.97267538,6.8327267 C2.97267538,10.5907304 6.04739837,13.6654534 9.80540208,13.6654534 C13.5634058,13.6654534 16.6381288,10.5907304 16.6381288,6.8327267 C16.6381288,3.02592872 13.6122202,0 9.80540208,0 Z" id="形状" fill="#999999"></path>
                <path d="M16.5937433,15.7684826 L2.92831001,15.7684826 C1.31104905,15.7684826 -1.98057346e-16,17.0795317 0,18.6967926 C1.98057346e-16,20.3140536 1.31104905,21.6251027 2.92831001,21.6251027 L16.5937433,21.6251027 C18.2110043,21.6251027 19.5220533,20.3140536 19.5220533,18.6967926 C19.5220533,17.0795317 18.2110043,15.7684826 16.5937433,15.7684826 Z" id="路径" stroke="#999999" stroke-width="2"></path>
            </g>
        </g>
    </g>
</svg>